<mxfile host="app.diagrams.net" agent="Mozilla/5.0 (Windows NT 10.0; Win64; x64) AppleWebKit/537.36 (KHTML, like Gecko) Chrome/131.0.0.0 Safari/537.36" version="24.9.0">
  <diagram name="Page-1" id="BJKP86vV8foPYx7KuMYJ">
    <mxGraphModel dx="1050" dy="557" grid="1" gridSize="10" guides="1" tooltips="1" connect="1" arrows="1" fold="1" page="1" pageScale="1" pageWidth="827" pageHeight="1169" math="0" shadow="0">
      <root>
        <mxCell id="0" />
        <mxCell id="1" parent="0" />
        <mxCell id="Xmhtfc8KleYQnfFEa7fh-1" value="Open Registration Page" style="whiteSpace=wrap;strokeWidth=2;" vertex="1" parent="1">
          <mxGeometry x="143" y="20" width="226" height="48" as="geometry" />
        </mxCell>
        <mxCell id="Xmhtfc8KleYQnfFEa7fh-2" value="User fills Username, Email, and other required fields" style="whiteSpace=wrap;strokeWidth=2;" vertex="1" parent="1">
          <mxGeometry x="129" y="118" width="255" height="66" as="geometry" />
        </mxCell>
        <mxCell id="Xmhtfc8KleYQnfFEa7fh-3" value="Does Username or Email exist?" style="rhombus;strokeWidth=2;whiteSpace=wrap;" vertex="1" parent="1">
          <mxGeometry x="239" y="234" width="239" height="239" as="geometry" />
        </mxCell>
        <mxCell id="Xmhtfc8KleYQnfFEa7fh-4" value="Display warningÂ " style="whiteSpace=wrap;strokeWidth=2;" vertex="1" parent="1">
          <mxGeometry x="20" y="546" width="222" height="66" as="geometry" />
        </mxCell>
        <mxCell id="Xmhtfc8KleYQnfFEa7fh-5" value="Submit the form" style="whiteSpace=wrap;strokeWidth=2;" vertex="1" parent="1">
          <mxGeometry x="292" y="555" width="177" height="48" as="geometry" />
        </mxCell>
        <mxCell id="Xmhtfc8KleYQnfFEa7fh-6" value="User created successfully" style="whiteSpace=wrap;strokeWidth=2;" vertex="1" parent="1">
          <mxGeometry x="260" y="662" width="242" height="48" as="geometry" />
        </mxCell>
        <mxCell id="Xmhtfc8KleYQnfFEa7fh-7" value="Redirect to dynamic page set by admin" style="whiteSpace=wrap;strokeWidth=2;" vertex="1" parent="1">
          <mxGeometry x="259" y="761" width="243" height="66" as="geometry" />
        </mxCell>
        <mxCell id="Xmhtfc8KleYQnfFEa7fh-8" value="End" style="whiteSpace=wrap;strokeWidth=2;" vertex="1" parent="1">
          <mxGeometry x="338" y="877" width="86" height="48" as="geometry" />
        </mxCell>
        <mxCell id="Xmhtfc8KleYQnfFEa7fh-9" value="" style="curved=1;startArrow=none;endArrow=block;exitX=0.5;exitY=1.01;entryX=0.5;entryY=0.01;rounded=0;" edge="1" parent="1" source="Xmhtfc8KleYQnfFEa7fh-1" target="Xmhtfc8KleYQnfFEa7fh-2">
          <mxGeometry relative="1" as="geometry">
            <Array as="points" />
          </mxGeometry>
        </mxCell>
        <mxCell id="Xmhtfc8KleYQnfFEa7fh-10" value="" style="curved=1;startArrow=none;endArrow=block;exitX=0.73;exitY=1.01;entryX=0.5;entryY=0;rounded=0;" edge="1" parent="1" source="Xmhtfc8KleYQnfFEa7fh-2" target="Xmhtfc8KleYQnfFEa7fh-3">
          <mxGeometry relative="1" as="geometry">
            <Array as="points">
              <mxPoint x="358" y="209" />
            </Array>
          </mxGeometry>
        </mxCell>
        <mxCell id="Xmhtfc8KleYQnfFEa7fh-11" value="Yes" style="curved=1;startArrow=none;endArrow=block;exitX=0.1;exitY=1;entryX=0.72;entryY=0;rounded=0;" edge="1" parent="1" source="Xmhtfc8KleYQnfFEa7fh-3" target="Xmhtfc8KleYQnfFEa7fh-4">
          <mxGeometry relative="1" as="geometry">
            <Array as="points">
              <mxPoint x="233" y="510" />
            </Array>
          </mxGeometry>
        </mxCell>
        <mxCell id="Xmhtfc8KleYQnfFEa7fh-12" value="" style="curved=1;startArrow=none;endArrow=block;exitX=0.46;exitY=0;entryX=0.18;entryY=1.01;rounded=0;" edge="1" parent="1" source="Xmhtfc8KleYQnfFEa7fh-4" target="Xmhtfc8KleYQnfFEa7fh-2">
          <mxGeometry relative="1" as="geometry">
            <Array as="points">
              <mxPoint x="114" y="510" />
              <mxPoint x="114" y="209" />
            </Array>
          </mxGeometry>
        </mxCell>
        <mxCell id="Xmhtfc8KleYQnfFEa7fh-13" value="No" style="curved=1;startArrow=none;endArrow=block;exitX=0.57;exitY=1;entryX=0.5;entryY=0;rounded=0;" edge="1" parent="1" source="Xmhtfc8KleYQnfFEa7fh-3" target="Xmhtfc8KleYQnfFEa7fh-5">
          <mxGeometry relative="1" as="geometry">
            <Array as="points">
              <mxPoint x="381" y="510" />
            </Array>
          </mxGeometry>
        </mxCell>
        <mxCell id="Xmhtfc8KleYQnfFEa7fh-14" value="" style="curved=1;startArrow=none;endArrow=block;exitX=0.5;exitY=1.01;entryX=0.5;entryY=0.01;rounded=0;" edge="1" parent="1" source="Xmhtfc8KleYQnfFEa7fh-5" target="Xmhtfc8KleYQnfFEa7fh-6">
          <mxGeometry relative="1" as="geometry">
            <Array as="points" />
          </mxGeometry>
        </mxCell>
        <mxCell id="Xmhtfc8KleYQnfFEa7fh-15" value="" style="curved=1;startArrow=none;endArrow=block;exitX=0.5;exitY=1.01;entryX=0.5;entryY=-0.01;rounded=0;" edge="1" parent="1" source="Xmhtfc8KleYQnfFEa7fh-6" target="Xmhtfc8KleYQnfFEa7fh-7">
          <mxGeometry relative="1" as="geometry">
            <Array as="points" />
          </mxGeometry>
        </mxCell>
        <mxCell id="Xmhtfc8KleYQnfFEa7fh-16" value="" style="curved=1;startArrow=none;endArrow=block;exitX=0.5;exitY=0.99;entryX=0.5;entryY=-0.01;rounded=0;" edge="1" parent="1" source="Xmhtfc8KleYQnfFEa7fh-7" target="Xmhtfc8KleYQnfFEa7fh-8">
          <mxGeometry relative="1" as="geometry">
            <Array as="points" />
          </mxGeometry>
        </mxCell>
      </root>
    </mxGraphModel>
  </diagram>
</mxfile>
